<svg width="230" height="100" viewBox="0 0 230 100" fill="none" xmlns="http://www.w3.org/2000/svg">
<path d="M69.65 17.4501C75.7 19.4001 80.9 24.3001 83.1 30.2001C85.3 36.1001 84.45 43.0501 85.6 50.6501C86.7 58.2501 89.75 66.5001 86.8 71.1001C83.9 75.7501 74.95 76.7501 67.8 80.3001C60.7 83.9001 55.35 90.0501 49.5 90.9001C43.65 91.7501 37.35 87.3001 30.95 83.3001C24.5 79.3001 18 75.7501 13.7 70.3001C9.39998 64.8001 7.24998 57.4001 8.29998 50.6001C9.39998 43.8501 13.65 37.6501 17.9 32.0501C22.15 26.4001 26.35 21.3501 31.65 19.0001C37 16.6501 43.5 17.0001 50.15 16.7501C56.8 16.4501 63.65 15.5001 69.65 17.4501Z" fill="#FFC93C"/>
<g clip-path="url(#clip0)">
<path d="M74.7675 50.3668C75.2642 50.2461 75.0777 50.8111 75.5744 50.6906C75.8391 51.0371 75.1631 51.4766 75.413 52.3097L75.1172 52.2287L74.9289 52.4716C74.5682 52.4016 74.8635 51.6735 74.7675 51.3381L74.8392 50.8972L74.4448 50.6906V50.5287L74.6868 50.6096L74.7675 50.3668Z" fill="black"/>
<path d="M75.2259 52.5526L75.4142 52.3097C76.5227 52.9783 77.4865 53.7921 78.4799 54.5763C78.5924 55.3906 78.2062 55.7049 78.3185 56.519C73.3729 56.9693 68.8505 57.5213 64.1192 58.1381C62.6297 58.3322 60.9144 58.4093 59.6013 58.7856C57.6499 59.3452 56.9439 60.7546 54.5992 61.0523C53.4536 61.1976 52.6054 60.7617 51.372 60.8904C49.8804 61.046 48.0985 62.0786 46.5312 62.6712C41.8667 64.4356 36.9952 66.3573 32.8159 68.4998C31.561 67.2083 30.8412 65.5038 29.9114 63.9665C27.218 59.5133 24.2619 54.9221 21.5209 50.3669C21.3764 49.8441 22.0471 50.1394 22.1664 49.8812L22.4085 49.9621L22.6505 49.8812C26.018 55.4608 29.487 60.9387 32.9774 66.3956C33.0734 66.0604 32.7779 65.3323 33.1388 65.2623L33.3271 65.5052L33.6229 65.4243C33.8371 66.1343 33.3179 66.9407 33.4615 67.0433C39.3818 64.1329 43.886 59.8015 52.8236 59.9195C52.6868 58.0555 53.6702 57.3152 54.2757 56.1958C54.0204 56.1824 53.6605 56.2737 53.6305 56.0339L53.7112 55.7912L53.6305 55.5483C53.7678 55.5782 53.7825 55.4851 53.7919 55.3864L54.0105 55.1898L53.9532 54.9006C54.5768 54.9226 54.5894 55.5575 55.0826 55.7102L55.2786 55.9298L55.5667 55.8721C55.4589 56.5734 54.82 56.7418 54.7598 57.491C55.5201 57.4442 55.9024 57.0184 56.8574 57.1673C57.4935 57.3387 57.4726 58.1693 57.8257 58.6243C60.9769 54.7167 68.7316 55.428 75.5756 55.2244C75.3839 54.2835 74.9052 53.6305 74.9301 52.4722L75.2286 52.5524L75.2259 52.5526Z" fill="black"/>
<path d="M22.4615 49.6383L22.1657 49.7192C22.1791 49.4629 22.0881 49.1017 22.3271 49.0715L22.5154 49.3144L22.8112 49.2335C22.7978 49.4898 22.8889 49.8507 22.6499 49.8811L22.4615 49.6383Z" fill="black"/>
<path d="M75.1177 52.2285C75.1536 52.3365 75.1894 52.4444 75.2252 52.5524" stroke="black" stroke-width="3.1619" stroke-linecap="round"/>
<path d="M22.4078 49.9621C22.4142 49.8541 22.4375 49.7462 22.4615 49.6382" stroke="black" stroke-width="3.0818" stroke-linecap="round"/>
<path d="M22.5154 49.3144C22.6516 48.5148 22.7712 47.4898 23.6018 47.1122" stroke="black" stroke-width="3.3387" stroke-linecap="round"/>
<path d="M23.6018 47.1127C28.6494 43.7518 35.7138 38.4132 41.5873 43.3703" stroke="black" stroke-width="2.2807" stroke-linecap="round"/>
<path d="M41.5867 43.3702C45.0611 37.5481 52.6556 40.4375 58.2037 39.202C63.6599 43.0498 69.3549 46.6346 74.6868 50.6097" stroke="black" stroke-width="2.328" stroke-linecap="round"/>
<path d="M55.278 55.9288C59.7258 49.8284 68.3357 52.0242 74.8401 50.8971" stroke="black" stroke-width="3.9899" stroke-linecap="round"/>
<path d="M41.5867 43.3702C45.791 47.2387 49.788 51.3517 54.0111 55.1889" stroke="black" stroke-width="3.0382" stroke-linecap="round"/>
<path d="M23.6018 47.1126C27.1549 52.1208 30.1105 57.6071 33.6221 62.6714" stroke="black" stroke-width="2.6156" stroke-linecap="round"/>
<path d="M33.6222 62.6714C40.0429 59.7365 46.1967 54.7895 53.7105 55.7906" stroke="black" stroke-width="2.9805" stroke-linecap="round"/>
<path d="M33.6222 62.6714C33.5325 63.6164 33.4721 64.5648 33.3264 65.5047" stroke="black" stroke-width="3.7282" stroke-linecap="round"/>
</g>
<path d="M116.672 23.272L110.36 40H107.84L101.528 23.272H103.856L109.112 37.696L114.368 23.272H116.672ZM120.195 24.712C119.779 24.712 119.427 24.568 119.139 24.28C118.851 23.992 118.707 23.64 118.707 23.224C118.707 22.808 118.851 22.456 119.139 22.168C119.427 21.88 119.779 21.736 120.195 21.736C120.595 21.736 120.931 21.88 121.203 22.168C121.491 22.456 121.635 22.808 121.635 23.224C121.635 23.64 121.491 23.992 121.203 24.28C120.931 24.568 120.595 24.712 120.195 24.712ZM121.251 26.848V40H119.067V26.848H121.251ZM127.157 28.984C127.541 28.232 128.085 27.648 128.789 27.232C129.509 26.816 130.381 26.608 131.405 26.608V28.864H130.829C128.381 28.864 127.157 30.192 127.157 32.848V40H124.973V26.848H127.157V28.984ZM136.59 28.648V36.4C136.59 37.04 136.726 37.496 136.998 37.768C137.27 38.024 137.742 38.152 138.414 38.152H140.022V40H138.054C136.838 40 135.926 39.72 135.318 39.16C134.71 38.6 134.406 37.68 134.406 36.4V28.648H132.702V26.848H134.406V23.536H136.59V26.848H140.022V28.648H136.59ZM154.332 26.848V40H152.148V38.056C151.732 38.728 151.148 39.256 150.396 39.64C149.66 40.008 148.844 40.192 147.948 40.192C146.924 40.192 146.004 39.984 145.188 39.568C144.372 39.136 143.724 38.496 143.244 37.648C142.78 36.8 142.548 35.768 142.548 34.552V26.848H144.708V34.264C144.708 35.56 145.036 36.56 145.692 37.264C146.348 37.952 147.244 38.296 148.38 38.296C149.548 38.296 150.468 37.936 151.14 37.216C151.812 36.496 152.148 35.448 152.148 34.072V26.848H154.332ZM157.204 33.376C157.204 32.032 157.476 30.856 158.02 29.848C158.564 28.824 159.308 28.032 160.252 27.472C161.212 26.912 162.276 26.632 163.444 26.632C164.596 26.632 165.596 26.88 166.444 27.376C167.292 27.872 167.924 28.496 168.34 29.248V26.848H170.548V40H168.34V37.552C167.908 38.32 167.26 38.96 166.396 39.472C165.548 39.968 164.556 40.216 163.42 40.216C162.252 40.216 161.196 39.928 160.252 39.352C159.308 38.776 158.564 37.968 158.02 36.928C157.476 35.888 157.204 34.704 157.204 33.376ZM168.34 33.4C168.34 32.408 168.14 31.544 167.74 30.808C167.34 30.072 166.796 29.512 166.108 29.128C165.436 28.728 164.692 28.528 163.876 28.528C163.06 28.528 162.316 28.72 161.644 29.104C160.972 29.488 160.436 30.048 160.036 30.784C159.636 31.52 159.436 32.384 159.436 33.376C159.436 34.384 159.636 35.264 160.036 36.016C160.436 36.752 160.972 37.32 161.644 37.72C162.316 38.104 163.06 38.296 163.876 38.296C164.692 38.296 165.436 38.104 166.108 37.72C166.796 37.32 167.34 36.752 167.74 36.016C168.14 35.264 168.34 34.392 168.34 33.4ZM176.423 22.24V40H174.239V22.24H176.423ZM105.032 61.048V66.64H111.128V68.44H105.032V74.2H111.848V76H102.848V59.248H111.848V61.048H105.032ZM124.273 66.28V68.128H114.697V66.28H124.273ZM130.555 74.224H136.411V76H128.371V59.272H130.555V74.224ZM150.731 68.92C150.731 69.336 150.707 69.776 150.659 70.24H140.147C140.227 71.536 140.667 72.552 141.467 73.288C142.283 74.008 143.267 74.368 144.419 74.368C145.363 74.368 146.147 74.152 146.771 73.72C147.411 73.272 147.859 72.68 148.115 71.944H150.467C150.115 73.208 149.411 74.24 148.355 75.04C147.299 75.824 145.987 76.216 144.419 76.216C143.171 76.216 142.051 75.936 141.059 75.376C140.083 74.816 139.315 74.024 138.755 73C138.195 71.96 137.915 70.76 137.915 69.4C137.915 68.04 138.187 66.848 138.731 65.824C139.275 64.8 140.035 64.016 141.011 63.472C142.003 62.912 143.139 62.632 144.419 62.632C145.667 62.632 146.771 62.904 147.731 63.448C148.691 63.992 149.427 64.744 149.939 65.704C150.467 66.648 150.731 67.72 150.731 68.92ZM148.475 68.464C148.475 67.632 148.291 66.92 147.923 66.328C147.555 65.72 147.051 65.264 146.411 64.96C145.787 64.64 145.091 64.48 144.323 64.48C143.219 64.48 142.275 64.832 141.491 65.536C140.723 66.24 140.283 67.216 140.171 68.464H148.475ZM152.798 69.376C152.798 68.032 153.07 66.856 153.614 65.848C154.158 64.824 154.902 64.032 155.846 63.472C156.806 62.912 157.87 62.632 159.038 62.632C160.19 62.632 161.19 62.88 162.038 63.376C162.886 63.872 163.518 64.496 163.934 65.248V62.848H166.142V76H163.934V73.552C163.502 74.32 162.854 74.96 161.99 75.472C161.142 75.968 160.15 76.216 159.014 76.216C157.846 76.216 156.79 75.928 155.846 75.352C154.902 74.776 154.158 73.968 153.614 72.928C153.07 71.888 152.798 70.704 152.798 69.376ZM163.934 69.4C163.934 68.408 163.734 67.544 163.334 66.808C162.934 66.072 162.39 65.512 161.702 65.128C161.03 64.728 160.286 64.528 159.47 64.528C158.654 64.528 157.91 64.72 157.238 65.104C156.566 65.488 156.03 66.048 155.63 66.784C155.23 67.52 155.03 68.384 155.03 69.376C155.03 70.384 155.23 71.264 155.63 72.016C156.03 72.752 156.566 73.32 157.238 73.72C157.91 74.104 158.654 74.296 159.47 74.296C160.286 74.296 161.03 74.104 161.702 73.72C162.39 73.32 162.934 72.752 163.334 72.016C163.734 71.264 163.934 70.392 163.934 69.4ZM172.016 64.984C172.4 64.232 172.944 63.648 173.648 63.232C174.368 62.816 175.24 62.608 176.264 62.608V64.864H175.688C173.24 64.864 172.016 66.192 172.016 68.848V76H169.832V62.848H172.016V64.984ZM185.194 62.608C186.794 62.608 188.09 63.096 189.082 64.072C190.074 65.032 190.57 66.424 190.57 68.248V76H188.41V68.56C188.41 67.248 188.082 66.248 187.426 65.56C186.77 64.856 185.874 64.504 184.738 64.504C183.586 64.504 182.666 64.864 181.978 65.584C181.306 66.304 180.97 67.352 180.97 68.728V76H178.786V62.848H180.97V64.72C181.402 64.048 181.986 63.528 182.722 63.16C183.474 62.792 184.298 62.608 185.194 62.608ZM195.265 60.712C194.849 60.712 194.497 60.568 194.209 60.28C193.921 59.992 193.777 59.64 193.777 59.224C193.777 58.808 193.921 58.456 194.209 58.168C194.497 57.88 194.849 57.736 195.265 57.736C195.665 57.736 196.001 57.88 196.273 58.168C196.561 58.456 196.705 58.808 196.705 59.224C196.705 59.64 196.561 59.992 196.273 60.28C196.001 60.568 195.665 60.712 195.265 60.712ZM196.321 62.848V76H194.137V62.848H196.321ZM206.451 62.608C208.051 62.608 209.347 63.096 210.339 64.072C211.331 65.032 211.827 66.424 211.827 68.248V76H209.667V68.56C209.667 67.248 209.339 66.248 208.683 65.56C208.027 64.856 207.131 64.504 205.995 64.504C204.843 64.504 203.923 64.864 203.235 65.584C202.563 66.304 202.227 67.352 202.227 68.728V76H200.043V62.848H202.227V64.72C202.659 64.048 203.243 63.528 203.979 63.16C204.731 62.792 205.555 62.608 206.451 62.608ZM220.819 62.632C221.955 62.632 222.947 62.88 223.795 63.376C224.659 63.872 225.299 64.496 225.715 65.248V62.848H227.923V76.288C227.923 77.488 227.667 78.552 227.155 79.48C226.643 80.424 225.907 81.16 224.947 81.688C224.003 82.216 222.899 82.48 221.635 82.48C219.907 82.48 218.467 82.072 217.315 81.256C216.163 80.44 215.483 79.328 215.275 77.92H217.435C217.675 78.72 218.171 79.36 218.923 79.84C219.675 80.336 220.579 80.584 221.635 80.584C222.835 80.584 223.811 80.208 224.563 79.456C225.331 78.704 225.715 77.648 225.715 76.288V73.528C225.283 74.296 224.643 74.936 223.795 75.448C222.947 75.96 221.955 76.216 220.819 76.216C219.651 76.216 218.587 75.928 217.627 75.352C216.683 74.776 215.939 73.968 215.395 72.928C214.851 71.888 214.579 70.704 214.579 69.376C214.579 68.032 214.851 66.856 215.395 65.848C215.939 64.824 216.683 64.032 217.627 63.472C218.587 62.912 219.651 62.632 220.819 62.632ZM225.715 69.4C225.715 68.408 225.515 67.544 225.115 66.808C224.715 66.072 224.171 65.512 223.483 65.128C222.811 64.728 222.067 64.528 221.251 64.528C220.435 64.528 219.691 64.72 219.019 65.104C218.347 65.488 217.811 66.048 217.411 66.784C217.011 67.52 216.811 68.384 216.811 69.376C216.811 70.384 217.011 71.264 217.411 72.016C217.811 72.752 218.347 73.32 219.019 73.72C219.691 74.104 220.435 74.296 221.251 74.296C222.067 74.296 222.811 74.104 223.483 73.72C224.171 73.32 224.715 72.752 225.115 72.016C225.515 71.264 225.715 70.392 225.715 69.4Z" fill="black"/>
<defs>
<clipPath id="clip0">
<rect width="57" height="29.5" fill="white" transform="translate(21.5 38.9999)"/>
</clipPath>
</defs>
</svg>
