<svg width="50" height="50" viewBox="0 0 50 50" fill="none" xmlns="http://www.w3.org/2000/svg">
<circle cx="25" cy="25" r="25" fill="#FFC93C"/>
<path d="M33 39H17C16.4697 38.9995 15.9613 38.7886 15.5864 38.4136C15.2114 38.0387 15.0005 37.5303 15 37V13C15.0005 12.4697 15.2114 11.9613 15.5864 11.5864C15.9613 11.2114 16.4697 11.0005 17 11H33C33.5303 11.0005 34.0387 11.2114 34.4136 11.5864C34.7886 11.9613 34.9995 12.4697 35 13V29.618L30 27.118L25 29.618V13H17V37H33V33H35V37C34.9992 37.5302 34.7882 38.0384 34.4133 38.4133C34.0384 38.7882 33.5302 38.9992 33 39V39ZM30 24.882L33 26.382V13H27V26.382L30 24.882Z" fill="white"/>
</svg>
