<svg width="50" height="50" viewBox="0 0 50 50" fill="none" xmlns="http://www.w3.org/2000/svg">
<circle cx="25" cy="25" r="25" fill="#FFC93C"/>
<path d="M35.0356 13.4H28.6356C28.3797 12.6397 27.8917 11.9788 27.2402 11.5106C26.5887 11.0424 25.8067 10.7906 25.0045 10.7906C24.2022 10.7906 23.4202 11.0424 22.7687 11.5106C22.1172 11.9788 21.6292 12.6397 21.3733 13.4H15.2222C15.0046 13.3686 14.7827 13.3836 14.5712 13.4442C14.3598 13.5047 14.1636 13.6095 13.9956 13.7514C13.8276 13.8934 13.6916 14.0694 13.5966 14.2677C13.5016 14.4661 13.4497 14.6824 13.4445 14.9023V37.6756C13.4456 37.874 13.4859 38.0703 13.5629 38.2532C13.6399 38.4361 13.7522 38.602 13.8933 38.7415C14.0345 38.881 14.2017 38.9913 14.3855 39.0662C14.5693 39.1411 14.766 39.179 14.9645 39.1778H35.0356C35.234 39.179 35.4307 39.1411 35.6145 39.0662C35.7983 38.9913 35.9656 38.881 36.1067 38.7415C36.2478 38.602 36.3601 38.4361 36.4371 38.2532C36.5142 38.0703 36.5544 37.874 36.5556 37.6756V14.9023C36.5544 14.7038 36.5142 14.5076 36.4371 14.3247C36.3601 14.1418 36.2478 13.9758 36.1067 13.8363C35.9656 13.6968 35.7983 13.5865 35.6145 13.5117C35.4307 13.4368 35.234 13.3989 35.0356 13.4ZM19.0356 16.0667C19.0356 15.831 19.1292 15.6049 19.2959 15.4382C19.4626 15.2715 19.6887 15.1778 19.9245 15.1778H22.9822V14.6178C22.9822 14.0721 23.199 13.5487 23.5849 13.1628C23.9709 12.7768 24.4943 12.56 25.04 12.56C25.5858 12.56 26.1092 12.7768 26.4951 13.1628C26.881 13.5487 27.0978 14.0721 27.0978 14.6178V15.2223H30.1556C30.3913 15.2223 30.6174 15.3159 30.7841 15.4826C30.9508 15.6493 31.0445 15.8754 31.0445 16.1112V17.7112H19L19.0356 16.0667ZM31.9422 24.2712L23.8356 32.3778L19.1778 27.72C18.942 27.4843 18.8096 27.1646 18.8096 26.8312C18.8096 26.4978 18.942 26.178 19.1778 25.9423C19.4135 25.7065 19.7333 25.5741 20.0667 25.5741C20.4001 25.5741 20.7198 25.7065 20.9556 25.9423L23.8533 28.84L30.2 22.4934C30.4358 22.2576 30.7555 22.1252 31.0889 22.1252C31.4223 22.1252 31.742 22.2576 31.9778 22.4934C32.2135 22.7291 32.346 23.0489 32.346 23.3823C32.346 23.7157 32.2135 24.0354 31.9778 24.2712H31.9422Z" fill="white"/>
</svg>
